0
SECTION
2
HEADER
9
$INSUNITS
70
4
0
ENDSEC
0
SECTION
2
TABLES
0
TABLE
2
LTYPE
0
LTYPE
72
65
70
64
2
CONTINUOUS
3
______
73
0
40
0
0
ENDTAB
0
TABLE
2
LAYER
0
ENDTAB
0
ENDSEC
0
SECTION
2
ENTITIES
0
ARC
8
0
10
3.025
20
-16.025
40
0.5
50
180
51
270
0
ARC
8
0
10
16.025
20
-16.025
40
0.5
50
270
51
0
0
ARC
8
0
10
16.025
20
-3.025
40
0.5
50
0
51
90
0
ARC
8
0
10
3.025
20
-3.025
40
0.5
50
90
51
180
0
LINE
8
0
10
3.025
20
-16.525
11
16.025
21
-16.525
0
LINE
8
0
10
16.025
20
-2.525
11
3.025
21
-2.525
0
LINE
8
0
10
16.525
20
-16.025
11
16.525
21
-15.525
0
LINE
8
0
10
16.525
20
-12.425
11
16.525
21
-6.625
0
LINE
8
0
10
16.525
20
-3.525
11
16.525
21
-3.025
0
LINE
8
0
10
2.525
20
-3.025
11
2.525
21
-3.525
0
LINE
8
0
10
2.525
20
-6.625
11
2.525
21
-12.425
0
LINE
8
0
10
2.525
20
-15.525
11
2.525
21
-16.025
0
ARC
8
0
10
2.225
20
-6.125
40
0.5
50
180
51
270
0
ARC
8
0
10
16.825
20
-6.125
40
0.5
50
270
51
0
0
ARC
8
0
10
16.825
20
-4.025
40
0.5
50
0
51
90
0
ARC
8
0
10
2.225
20
-4.025
40
0.5
50
90
51
180
0
LINE
8
0
10
2.225
20
-6.625
11
2.525
21
-6.625
0
LINE
8
0
10
16.525
20
-6.625
11
16.825
21
-6.625
0
LINE
8
0
10
16.825
20
-3.525
11
16.525
21
-3.525
0
LINE
8
0
10
2.525
20
-3.525
11
2.225
21
-3.525
0
LINE
8
0
10
17.325
20
-6.125
11
17.325
21
-4.025
0
LINE
8
0
10
1.725
20
-4.025
11
1.725
21
-6.125
0
ARC
8
0
10
2.225
20
-15.025
40
0.5
50
180
51
270
0
ARC
8
0
10
16.825
20
-15.025
40
0.5
50
270
51
0
0
ARC
8
0
10
16.825
20
-12.925
40
0.5
50
0
51
90
0
ARC
8
0
10
2.225
20
-12.925
40
0.5
50
90
51
180
0
LINE
8
0
10
2.225
20
-15.525
11
2.525
21
-15.525
0
LINE
8
0
10
16.525
20
-15.525
11
16.825
21
-15.525
0
LINE
8
0
10
16.825
20
-12.425
11
16.525
21
-12.425
0
LINE
8
0
10
2.525
20
-12.425
11
2.225
21
-12.425
0
LINE
8
0
10
17.325
20
-15.025
11
17.325
21
-12.925
0
LINE
8
0
10
1.725
20
-12.925
11
1.725
21
-15.025
0
ARC
8
0
10
22.075
20
-16.025
40
0.5
50
180
51
270
0
ARC
8
0
10
35.075
20
-16.025
40
0.5
50
270
51
0
0
ARC
8
0
10
35.075
20
-3.025
40
0.5
50
0
51
90
0
ARC
8
0
10
22.075
20
-3.025
40
0.5
50
90
51
180
0
LINE
8
0
10
22.075
20
-16.525
11
35.075
21
-16.525
0
LINE
8
0
10
35.075
20
-2.525
11
22.075
21
-2.525
0
LINE
8
0
10
35.575
20
-16.025
11
35.575
21
-15.525
0
LINE
8
0
10
35.575
20
-12.425
11
35.575
21
-6.625
0
LINE
8
0
10
35.575
20
-3.525
11
35.575
21
-3.025
0
LINE
8
0
10
21.575
20
-3.025
11
21.575
21
-3.525
0
LINE
8
0
10
21.575
20
-6.625
11
21.575
21
-12.425
0
LINE
8
0
10
21.575
20
-15.525
11
21.575
21
-16.025
0
ARC
8
0
10
21.275
20
-6.125
40
0.5
50
180
51
270
0
ARC
8
0
10
35.875
20
-6.125
40
0.5
50
270
51
0
0
ARC
8
0
10
35.875
20
-4.025
40
0.5
50
0
51
90
0
ARC
8
0
10
21.275
20
-4.025
40
0.5
50
90
51
180
0
LINE
8
0
10
21.275
20
-6.625
11
21.575
21
-6.625
0
LINE
8
0
10
35.575
20
-6.625
11
35.875
21
-6.625
0
LINE
8
0
10
35.875
20
-3.525
11
35.575
21
-3.525
0
LINE
8
0
10
21.575
20
-3.525
11
21.275
21
-3.525
0
LINE
8
0
10
36.375
20
-6.125
11
36.375
21
-4.025
0
LINE
8
0
10
20.775
20
-4.025
11
20.775
21
-6.125
0
ARC
8
0
10
21.275
20
-15.025
40
0.5
50
180
51
270
0
ARC
8
0
10
35.875
20
-15.025
40
0.5
50
270
51
0
0
ARC
8
0
10
35.875
20
-12.925
40
0.5
50
0
51
90
0
ARC
8
0
10
21.275
20
-12.925
40
0.5
50
90
51
180
0
LINE
8
0
10
21.275
20
-15.525
11
21.575
21
-15.525
0
LINE
8
0
10
35.575
20
-15.525
11
35.875
21
-15.525
0
LINE
8
0
10
35.875
20
-12.425
11
35.575
21
-12.425
0
LINE
8
0
10
21.575
20
-12.425
11
21.275
21
-12.425
0
LINE
8
0
10
36.375
20
-15.025
11
36.375
21
-12.925
0
LINE
8
0
10
20.775
20
-12.925
11
20.775
21
-15.025
0
ARC
8
0
10
41.125
20
-16.025
40
0.5
50
180
51
270
0
ARC
8
0
10
54.125
20
-16.025
40
0.5
50
270
51
0
0
ARC
8
0
10
54.125
20
-3.025
40
0.5
50
0
51
90
0
ARC
8
0
10
41.125
20
-3.025
40
0.5
50
90
51
180
0
LINE
8
0
10
41.125
20
-16.525
11
54.125
21
-16.525
0
LINE
8
0
10
54.125
20
-2.525
11
41.125
21
-2.525
0
LINE
8
0
10
54.625
20
-16.025
11
54.625
21
-15.525
0
LINE
8
0
10
54.625
20
-12.425
11
54.625
21
-6.625
0
LINE
8
0
10
54.625
20
-3.525
11
54.625
21
-3.025
0
LINE
8
0
10
40.625
20
-3.025
11
40.625
21
-3.525
0
LINE
8
0
10
40.625
20
-6.625
11
40.625
21
-12.425
0
LINE
8
0
10
40.625
20
-15.525
11
40.625
21
-16.025
0
ARC
8
0
10
40.325
20
-6.125
40
0.5
50
180
51
270
0
ARC
8
0
10
54.925
20
-6.125
40
0.5
50
270
51
0
0
ARC
8
0
10
54.925
20
-4.025
40
0.5
50
0
51
90
0
ARC
8
0
10
40.325
20
-4.025
40
0.5
50
90
51
180
0
LINE
8
0
10
40.325
20
-6.625
11
40.625
21
-6.625
0
LINE
8
0
10
54.625
20
-6.625
11
54.925
21
-6.625
0
LINE
8
0
10
54.925
20
-3.525
11
54.625
21
-3.525
0
LINE
8
0
10
40.625
20
-3.525
11
40.325
21
-3.525
0
LINE
8
0
10
55.425
20
-6.125
11
55.425
21
-4.025
0
LINE
8
0
10
39.825
20
-4.025
11
39.825
21
-6.125
0
ARC
8
0
10
40.325
20
-15.025
40
0.5
50
180
51
270
0
ARC
8
0
10
54.925
20
-15.025
40
0.5
50
270
51
0
0
ARC
8
0
10
54.925
20
-12.925
40
0.5
50
0
51
90
0
ARC
8
0
10
40.325
20
-12.925
40
0.5
50
90
51
180
0
LINE
8
0
10
40.325
20
-15.525
11
40.625
21
-15.525
0
LINE
8
0
10
54.625
20
-15.525
11
54.925
21
-15.525
0
LINE
8
0
10
54.925
20
-12.425
11
54.625
21
-12.425
0
LINE
8
0
10
40.625
20
-12.425
11
40.325
21
-12.425
0
LINE
8
0
10
55.425
20
-15.025
11
55.425
21
-12.925
0
LINE
8
0
10
39.825
20
-12.925
11
39.825
21
-15.025
0
ARC
8
0
10
60.175
20
-16.025
40
0.5
50
180
51
270
0
ARC
8
0
10
73.175
20
-16.025
40
0.5
50
270
51
0
0
ARC
8
0
10
73.175
20
-3.025
40
0.5
50
0
51
90
0
ARC
8
0
10
60.175
20
-3.025
40
0.5
50
90
51
180
0
LINE
8
0
10
60.175
20
-16.525
11
73.175
21
-16.525
0
LINE
8
0
10
73.175
20
-2.525
11
60.175
21
-2.525
0
LINE
8
0
10
73.675
20
-16.025
11
73.675
21
-15.525
0
LINE
8
0
10
73.675
20
-12.425
11
73.675
21
-6.625
0
LINE
8
0
10
73.675
20
-3.525
11
73.675
21
-3.025
0
LINE
8
0
10
59.675
20
-3.025
11
59.675
21
-3.525
0
LINE
8
0
10
59.675
20
-6.625
11
59.675
21
-12.425
0
LINE
8
0
10
59.675
20
-15.525
11
59.675
21
-16.025
0
ARC
8
0
10
59.375
20
-6.125
40
0.5
50
180
51
270
0
ARC
8
0
10
73.975
20
-6.125
40
0.5
50
270
51
0
0
ARC
8
0
10
73.975
20
-4.025
40
0.5
50
0
51
90
0
ARC
8
0
10
59.375
20
-4.025
40
0.5
50
90
51
180
0
LINE
8
0
10
59.375
20
-6.625
11
59.675
21
-6.625
0
LINE
8
0
10
73.675
20
-6.625
11
73.975
21
-6.625
0
LINE
8
0
10
73.975
20
-3.525
11
73.675
21
-3.525
0
LINE
8
0
10
59.675
20
-3.525
11
59.375
21
-3.525
0
LINE
8
0
10
74.475
20
-6.125
11
74.475
21
-4.025
0
LINE
8
0
10
58.875
20
-4.025
11
58.875
21
-6.125
0
ARC
8
0
10
59.375
20
-15.025
40
0.5
50
180
51
270
0
ARC
8
0
10
73.975
20
-15.025
40
0.5
50
270
51
0
0
ARC
8
0
10
73.975
20
-12.925
40
0.5
50
0
51
90
0
ARC
8
0
10
59.375
20
-12.925
40
0.5
50
90
51
180
0
LINE
8
0
10
59.375
20
-15.525
11
59.675
21
-15.525
0
LINE
8
0
10
73.675
20
-15.525
11
73.975
21
-15.525
0
LINE
8
0
10
73.975
20
-12.425
11
73.675
21
-12.425
0
LINE
8
0
10
59.675
20
-12.425
11
59.375
21
-12.425
0
LINE
8
0
10
74.475
20
-15.025
11
74.475
21
-12.925
0
LINE
8
0
10
58.875
20
-12.925
11
58.875
21
-15.025
0
ARC
8
0
10
207.8125
20
-54.125
40
0.5
50
180
51
270
0
ARC
8
0
10
220.8125
20
-54.125
40
0.5
50
270
51
0
0
ARC
8
0
10
220.8125
20
-41.125
40
0.5
50
0
51
90
0
ARC
8
0
10
207.8125
20
-41.125
40
0.5
50
90
51
180
0
LINE
8
0
10
207.8125
20
-54.625
11
220.8125
21
-54.625
0
LINE
8
0
10
220.8125
20
-40.625
11
207.8125
21
-40.625
0
LINE
8
0
10
221.3125
20
-54.125
11
221.3125
21
-53.625
0
LINE
8
0
10
221.3125
20
-50.525
11
221.3125
21
-44.725
0
LINE
8
0
10
221.3125
20
-41.625
11
221.3125
21
-41.125
0
LINE
8
0
10
207.3125
20
-41.125
11
207.3125
21
-41.625
0
LINE
8
0
10
207.3125
20
-44.725
11
207.3125
21
-50.525
0
LINE
8
0
10
207.3125
20
-53.625
11
207.3125
21
-54.125
0
ARC
8
0
10
207.0125
20
-44.225
40
0.5
50
180
51
270
0
ARC
8
0
10
221.6125
20
-44.225
40
0.5
50
270
51
0
0
ARC
8
0
10
221.6125
20
-42.125
40
0.5
50
0
51
90
0
ARC
8
0
10
207.0125
20
-42.125
40
0.5
50
90
51
180
0
LINE
8
0
10
207.0125
20
-44.725
11
207.3125
21
-44.725
0
LINE
8
0
10
221.3125
20
-44.725
11
221.6125
21
-44.725
0
LINE
8
0
10
221.6125
20
-41.625
11
221.3125
21
-41.625
0
LINE
8
0
10
207.3125
20
-41.625
11
207.0125
21
-41.625
0
LINE
8
0
10
222.1125
20
-44.225
11
222.1125
21
-42.125
0
LINE
8
0
10
206.5125
20
-42.125
11
206.5125
21
-44.225
0
ARC
8
0
10
207.0125
20
-53.125
40
0.5
50
180
51
270
0
ARC
8
0
10
221.6125
20
-53.125
40
0.5
50
270
51
0
0
ARC
8
0
10
221.6125
20
-51.025
40
0.5
50
0
51
90
0
ARC
8
0
10
207.0125
20
-51.025
40
0.5
50
90
51
180
0
LINE
8
0
10
207.0125
20
-53.625
11
207.3125
21
-53.625
0
LINE
8
0
10
221.3125
20
-53.625
11
221.6125
21
-53.625
0
LINE
8
0
10
221.6125
20
-50.525
11
221.3125
21
-50.525
0
LINE
8
0
10
207.3125
20
-50.525
11
207.0125
21
-50.525
0
LINE
8
0
10
222.1125
20
-53.125
11
222.1125
21
-51.025
0
LINE
8
0
10
206.5125
20
-51.025
11
206.5125
21
-53.125
0
ARC
8
0
10
144.6375
20
-56.125
40
0.5
50
180
51
270
0
ARC
8
0
10
150.6375
20
-56.125
40
0.5
50
270
51
0
0
ARC
8
0
10
150.6375
20
-41.125
40
0.5
50
0
51
90
0
ARC
8
0
10
144.6375
20
-41.125
40
0.5
50
90
51
180
0
LINE
8
0
10
144.6375
20
-56.625
11
150.6375
21
-56.625
0
LINE
8
0
10
150.6375
20
-40.625
11
144.6375
21
-40.625
0
LINE
8
0
10
151.1375
20
-56.125
11
151.1375
21
-41.125
0
LINE
8
0
10
144.1375
20
-41.125
11
144.1375
21
-56.125
0
ARC
8
0
10
277.9875
20
-56.125
40
0.5
50
180
51
270
0
ARC
8
0
10
283.9875
20
-56.125
40
0.5
50
270
51
0
0
ARC
8
0
10
283.9875
20
-41.125
40
0.5
50
0
51
90
0
ARC
8
0
10
277.9875
20
-41.125
40
0.5
50
90
51
180
0
LINE
8
0
10
277.9875
20
-56.625
11
283.9875
21
-56.625
0
LINE
8
0
10
283.9875
20
-40.625
11
277.9875
21
-40.625
0
LINE
8
0
10
284.4875
20
-56.125
11
284.4875
21
-41.125
0
LINE
8
0
10
277.4875
20
-41.125
11
277.4875
21
-56.125
0
ARC
8
0
10
3.025
20
-35.075
40
0.5
50
180
51
270
0
ARC
8
0
10
16.025
20
-35.075
40
0.5
50
270
51
0
0
ARC
8
0
10
16.025
20
-22.075
40
0.5
50
0
51
90
0
ARC
8
0
10
3.025
20
-22.075
40
0.5
50
90
51
180
0
LINE
8
0
10
3.025
20
-35.575
11
16.025
21
-35.575
0
LINE
8
0
10
16.025
20
-21.575
11
3.025
21
-21.575
0
LINE
8
0
10
16.525
20
-35.075
11
16.525
21
-34.575
0
LINE
8
0
10
16.525
20
-31.475
11
16.525
21
-25.675
0
LINE
8
0
10
16.525
20
-22.575
11
16.525
21
-22.075
0
LINE
8
0
10
2.525
20
-22.075
11
2.525
21
-22.575
0
LINE
8
0
10
2.525
20
-25.675
11
2.525
21
-31.475
0
LINE
8
0
10
2.525
20
-34.575
11
2.525
21
-35.075
0
ARC
8
0
10
2.225
20
-25.175
40
0.5
50
180
51
270
0
ARC
8
0
10
16.825
20
-25.175
40
0.5
50
270
51
0
0
ARC
8
0
10
16.825
20
-23.075
40
0.5
50
0
51
90
0
ARC
8
0
10
2.225
20
-23.075
40
0.5
50
90
51
180
0
LINE
8
0
10
2.225
20
-25.675
11
2.525
21
-25.675
0
LINE
8
0
10
16.525
20
-25.675
11
16.825
21
-25.675
0
LINE
8
0
10
16.825
20
-22.575
11
16.525
21
-22.575
0
LINE
8
0
10
2.525
20
-22.575
11
2.225
21
-22.575
0
LINE
8
0
10
17.325
20
-25.175
11
17.325
21
-23.075
0
LINE
8
0
10
1.725
20
-23.075
11
1.725
21
-25.175
0
ARC
8
0
10
2.225
20
-34.075
40
0.5
50
180
51
270
0
ARC
8
0
10
16.825
20
-34.075
40
0.5
50
270
51
0
0
ARC
8
0
10
16.825
20
-31.975
40
0.5
50
0
51
90
0
ARC
8
0
10
2.225
20
-31.975
40
0.5
50
90
51
180
0
LINE
8
0
10
2.225
20
-34.575
11
2.525
21
-34.575
0
LINE
8
0
10
16.525
20
-34.575
11
16.825
21
-34.575
0
LINE
8
0
10
16.825
20
-31.475
11
16.525
21
-31.475
0
LINE
8
0
10
2.525
20
-31.475
11
2.225
21
-31.475
0
LINE
8
0
10
17.325
20
-34.075
11
17.325
21
-31.975
0
LINE
8
0
10
1.725
20
-31.975
11
1.725
21
-34.075
0
ARC
8
0
10
22.075
20
-35.075
40
0.5
50
180
51
270
0
ARC
8
0
10
35.075
20
-35.075
40
0.5
50
270
51
0
0
ARC
8
0
10
35.075
20
-22.075
40
0.5
50
0
51
90
0
ARC
8
0
10
22.075
20
-22.075
40
0.5
50
90
51
180
0
LINE
8
0
10
22.075
20
-35.575
11
35.075
21
-35.575
0
LINE
8
0
10
35.075
20
-21.575
11
22.075
21
-21.575
0
LINE
8
0
10
35.575
20
-35.075
11
35.575
21
-34.575
0
LINE
8
0
10
35.575
20
-31.475
11
35.575
21
-25.675
0
LINE
8
0
10
35.575
20
-22.575
11
35.575
21
-22.075
0
LINE
8
0
10
21.575
20
-22.075
11
21.575
21
-22.575
0
LINE
8
0
10
21.575
20
-25.675
11
21.575
21
-31.475
0
LINE
8
0
10
21.575
20
-34.575
11
21.575
21
-35.075
0
ARC
8
0
10
21.275
20
-25.175
40
0.5
50
180
51
270
0
ARC
8
0
10
35.875
20
-25.175
40
0.5
50
270
51
0
0
ARC
8
0
10
35.875
20
-23.075
40
0.5
50
0
51
90
0
ARC
8
0
10
21.275
20
-23.075
40
0.5
50
90
51
180
0
LINE
8
0
10
21.275
20
-25.675
11
21.575
21
-25.675
0
LINE
8
0
10
35.575
20
-25.675
11
35.875
21
-25.675
0
LINE
8
0
10
35.875
20
-22.575
11
35.575
21
-22.575
0
LINE
8
0
10
21.575
20
-22.575
11
21.275
21
-22.575
0
LINE
8
0
10
36.375
20
-25.175
11
36.375
21
-23.075
0
LINE
8
0
10
20.775
20
-23.075
11
20.775
21
-25.175
0
ARC
8
0
10
21.275
20
-34.075
40
0.5
50
180
51
270
0
ARC
8
0
10
35.875
20
-34.075
40
0.5
50
270
51
0
0
ARC
8
0
10
35.875
20
-31.975
40
0.5
50
0
51
90
0
ARC
8
0
10
21.275
20
-31.975
40
0.5
50
90
51
180
0
LINE
8
0
10
21.275
20
-34.575
11
21.575
21
-34.575
0
LINE
8
0
10
35.575
20
-34.575
11
35.875
21
-34.575
0
LINE
8
0
10
35.875
20
-31.475
11
35.575
21
-31.475
0
LINE
8
0
10
21.575
20
-31.475
11
21.275
21
-31.475
0
LINE
8
0
10
36.375
20
-34.075
11
36.375
21
-31.975
0
LINE
8
0
10
20.775
20
-31.975
11
20.775
21
-34.075
0
ARC
8
0
10
41.125
20
-35.075
40
0.5
50
180
51
270
0
ARC
8
0
10
54.125
20
-35.075
40
0.5
50
270
51
0
0
ARC
8
0
10
54.125
20
-22.075
40
0.5
50
0
51
90
0
ARC
8
0
10
41.125
20
-22.075
40
0.5
50
90
51
180
0
LINE
8
0
10
41.125
20
-35.575
11
54.125
21
-35.575
0
LINE
8
0
10
54.125
20
-21.575
11
41.125
21
-21.575
0
LINE
8
0
10
54.625
20
-35.075
11
54.625
21
-34.575
0
LINE
8
0
10
54.625
20
-31.475
11
54.625
21
-25.675
0
LINE
8
0
10
54.625
20
-22.575
11
54.625
21
-22.075
0
LINE
8
0
10
40.625
20
-22.075
11
40.625
21
-22.575
0
LINE
8
0
10
40.625
20
-25.675
11
40.625
21
-31.475
0
LINE
8
0
10
40.625
20
-34.575
11
40.625
21
-35.075
0
ARC
8
0
10
40.325
20
-25.175
40
0.5
50
180
51
270
0
ARC
8
0
10
54.925
20
-25.175
40
0.5
50
270
51
0
0
ARC
8
0
10
54.925
20
-23.075
40
0.5
50
0
51
90
0
ARC
8
0
10
40.325
20
-23.075
40
0.5
50
90
51
180
0
LINE
8
0
10
40.325
20
-25.675
11
40.625
21
-25.675
0
LINE
8
0
10
54.625
20
-25.675
11
54.925
21
-25.675
0
LINE
8
0
10
54.925
20
-22.575
11
54.625
21
-22.575
0
LINE
8
0
10
40.625
20
-22.575
11
40.325
21
-22.575
0
LINE
8
0
10
55.425
20
-25.175
11
55.425
21
-23.075
0
LINE
8
0
10
39.825
20
-23.075
11
39.825
21
-25.175
0
ARC
8
0
10
40.325
20
-34.075
40
0.5
50
180
51
270
0
ARC
8
0
10
54.925
20
-34.075
40
0.5
50
270
51
0
0
ARC
8
0
10
54.925
20
-31.975
40
0.5
50
0
51
90
0
ARC
8
0
10
40.325
20
-31.975
40
0.5
50
90
51
180
0
LINE
8
0
10
40.325
20
-34.575
11
40.625
21
-34.575
0
LINE
8
0
10
54.625
20
-34.575
11
54.925
21
-34.575
0
LINE
8
0
10
54.925
20
-31.475
11
54.625
21
-31.475
0
LINE
8
0
10
40.625
20
-31.475
11
40.325
21
-31.475
0
LINE
8
0
10
55.425
20
-34.075
11
55.425
21
-31.975
0
LINE
8
0
10
39.825
20
-31.975
11
39.825
21
-34.075
0
ARC
8
0
10
60.175
20
-44.6
40
0.5
50
180
51
270
0
ARC
8
0
10
73.175
20
-44.6
40
0.5
50
270
51
0
0
ARC
8
0
10
73.175
20
-31.6
40
0.5
50
0
51
90
0
ARC
8
0
10
60.175
20
-31.6
40
0.5
50
90
51
180
0
LINE
8
0
10
60.175
20
-45.1
11
73.175
21
-45.1
0
LINE
8
0
10
73.175
20
-31.1
11
60.175
21
-31.1
0
LINE
8
0
10
73.675
20
-44.6
11
73.675
21
-44.1
0
LINE
8
0
10
73.675
20
-41
11
73.675
21
-35.2
0
LINE
8
0
10
73.675
20
-32.1
11
73.675
21
-31.6
0
LINE
8
0
10
59.675
20
-31.6
11
59.675
21
-32.1
0
LINE
8
0
10
59.675
20
-35.2
11
59.675
21
-41
0
LINE
8
0
10
59.675
20
-44.1
11
59.675
21
-44.6
0
ARC
8
0
10
59.375
20
-34.7
40
0.5
50
180
51
270
0
ARC
8
0
10
73.975
20
-34.7
40
0.5
50
270
51
0
0
ARC
8
0
10
73.975
20
-32.6
40
0.5
50
0
51
90
0
ARC
8
0
10
59.375
20
-32.6
40
0.5
50
90
51
180
0
LINE
8
0
10
59.375
20
-35.2
11
59.675
21
-35.2
0
LINE
8
0
10
73.675
20
-35.2
11
73.975
21
-35.2
0
LINE
8
0
10
73.975
20
-32.1
11
73.675
21
-32.1
0
LINE
8
0
10
59.675
20
-32.1
11
59.375
21
-32.1
0
LINE
8
0
10
74.475
20
-34.7
11
74.475
21
-32.6
0
LINE
8
0
10
58.875
20
-32.6
11
58.875
21
-34.7
0
ARC
8
0
10
59.375
20
-43.6
40
0.5
50
180
51
270
0
ARC
8
0
10
73.975
20
-43.6
40
0.5
50
270
51
0
0
ARC
8
0
10
73.975
20
-41.5
40
0.5
50
0
51
90
0
ARC
8
0
10
59.375
20
-41.5
40
0.5
50
90
51
180
0
LINE
8
0
10
59.375
20
-44.1
11
59.675
21
-44.1
0
LINE
8
0
10
73.675
20
-44.1
11
73.975
21
-44.1
0
LINE
8
0
10
73.975
20
-41
11
73.675
21
-41
0
LINE
8
0
10
59.675
20
-41
11
59.375
21
-41
0
LINE
8
0
10
74.475
20
-43.6
11
74.475
21
-41.5
0
LINE
8
0
10
58.875
20
-41.5
11
58.875
21
-43.6
0
ARC
8
0
10
58.175
20
-23.162
40
0.5
50
90
51
180
0
ARC
8
0
10
58.175
20
-29.162
40
0.5
50
180
51
270
0
ARC
8
0
10
73.175
20
-29.162
40
0.5
50
270
51
0
0
ARC
8
0
10
73.175
20
-23.162
40
0.5
50
0
51
90
0
LINE
8
0
10
57.675
20
-23.162
11
57.675
21
-29.162
0
LINE
8
0
10
73.675
20
-29.162
11
73.675
21
-23.162
0
LINE
8
0
10
58.175
20
-29.662
11
73.175
21
-29.662
0
LINE
8
0
10
73.175
20
-22.662
11
58.175
21
-22.662
0
ARC
8
0
10
58.175
20
-47.038
40
0.5
50
90
51
180
0
ARC
8
0
10
58.175
20
-53.038
40
0.5
50
180
51
270
0
ARC
8
0
10
73.175
20
-53.038
40
0.5
50
270
51
0
0
ARC
8
0
10
73.175
20
-47.038
40
0.5
50
0
51
90
0
LINE
8
0
10
57.675
20
-47.038
11
57.675
21
-53.038
0
LINE
8
0
10
73.675
20
-53.038
11
73.675
21
-47.038
0
LINE
8
0
10
58.175
20
-53.538
11
73.175
21
-53.538
0
LINE
8
0
10
73.175
20
-46.538
11
58.175
21
-46.538
0
ARC
8
0
10
3.025
20
-54.125
40
0.5
50
180
51
270
0
ARC
8
0
10
16.025
20
-54.125
40
0.5
50
270
51
0
0
ARC
8
0
10
16.025
20
-41.125
40
0.5
50
0
51
90
0
ARC
8
0
10
3.025
20
-41.125
40
0.5
50
90
51
180
0
LINE
8
0
10
3.025
20
-54.625
11
16.025
21
-54.625
0
LINE
8
0
10
16.025
20
-40.625
11
3.025
21
-40.625
0
LINE
8
0
10
16.525
20
-54.125
11
16.525
21
-53.625
0
LINE
8
0
10
16.525
20
-50.525
11
16.525
21
-44.725
0
LINE
8
0
10
16.525
20
-41.625
11
16.525
21
-41.125
0
LINE
8
0
10
2.525
20
-41.125
11
2.525
21
-41.625
0
LINE
8
0
10
2.525
20
-44.725
11
2.525
21
-50.525
0
LINE
8
0
10
2.525
20
-53.625
11
2.525
21
-54.125
0
ARC
8
0
10
2.225
20
-44.225
40
0.5
50
180
51
270
0
ARC
8
0
10
16.825
20
-44.225
40
0.5
50
270
51
0
0
ARC
8
0
10
16.825
20
-42.125
40
0.5
50
0
51
90
0
ARC
8
0
10
2.225
20
-42.125
40
0.5
50
90
51
180
0
LINE
8
0
10
2.225
20
-44.725
11
2.525
21
-44.725
0
LINE
8
0
10
16.525
20
-44.725
11
16.825
21
-44.725
0
LINE
8
0
10
16.825
20
-41.625
11
16.525
21
-41.625
0
LINE
8
0
10
2.525
20
-41.625
11
2.225
21
-41.625
0
LINE
8
0
10
17.325
20
-44.225
11
17.325
21
-42.125
0
LINE
8
0
10
1.725
20
-42.125
11
1.725
21
-44.225
0
ARC
8
0
10
2.225
20
-53.125
40
0.5
50
180
51
270
0
ARC
8
0
10
16.825
20
-53.125
40
0.5
50
270
51
0
0
ARC
8
0
10
16.825
20
-51.025
40
0.5
50
0
51
90
0
ARC
8
0
10
2.225
20
-51.025
40
0.5
50
90
51
180
0
LINE
8
0
10
2.225
20
-53.625
11
2.525
21
-53.625
0
LINE
8
0
10
16.525
20
-53.625
11
16.825
21
-53.625
0
LINE
8
0
10
16.825
20
-50.525
11
16.525
21
-50.525
0
LINE
8
0
10
2.525
20
-50.525
11
2.225
21
-50.525
0
LINE
8
0
10
17.325
20
-53.125
11
17.325
21
-51.025
0
LINE
8
0
10
1.725
20
-51.025
11
1.725
21
-53.125
0
ARC
8
0
10
22.075
20
-54.125
40
0.5
50
180
51
270
0
ARC
8
0
10
35.075
20
-54.125
40
0.5
50
270
51
0
0
ARC
8
0
10
35.075
20
-41.125
40
0.5
50
0
51
90
0
ARC
8
0
10
22.075
20
-41.125
40
0.5
50
90
51
180
0
LINE
8
0
10
22.075
20
-54.625
11
35.075
21
-54.625
0
LINE
8
0
10
35.075
20
-40.625
11
22.075
21
-40.625
0
LINE
8
0
10
35.575
20
-54.125
11
35.575
21
-53.625
0
LINE
8
0
10
35.575
20
-50.525
11
35.575
21
-44.725
0
LINE
8
0
10
35.575
20
-41.625
11
35.575
21
-41.125
0
LINE
8
0
10
21.575
20
-41.125
11
21.575
21
-41.625
0
LINE
8
0
10
21.575
20
-44.725
11
21.575
21
-50.525
0
LINE
8
0
10
21.575
20
-53.625
11
21.575
21
-54.125
0
ARC
8
0
10
21.275
20
-44.225
40
0.5
50
180
51
270
0
ARC
8
0
10
35.875
20
-44.225
40
0.5
50
270
51
0
0
ARC
8
0
10
35.875
20
-42.125
40
0.5
50
0
51
90
0
ARC
8
0
10
21.275
20
-42.125
40
0.5
50
90
51
180
0
LINE
8
0
10
21.275
20
-44.725
11
21.575
21
-44.725
0
LINE
8
0
10
35.575
20
-44.725
11
35.875
21
-44.725
0
LINE
8
0
10
35.875
20
-41.625
11
35.575
21
-41.625
0
LINE
8
0
10
21.575
20
-41.625
11
21.275
21
-41.625
0
LINE
8
0
10
36.375
20
-44.225
11
36.375
21
-42.125
0
LINE
8
0
10
20.775
20
-42.125
11
20.775
21
-44.225
0
ARC
8
0
10
21.275
20
-53.125
40
0.5
50
180
51
270
0
ARC
8
0
10
35.875
20
-53.125
40
0.5
50
270
51
0
0
ARC
8
0
10
35.875
20
-51.025
40
0.5
50
0
51
90
0
ARC
8
0
10
21.275
20
-51.025
40
0.5
50
90
51
180
0
LINE
8
0
10
21.275
20
-53.625
11
21.575
21
-53.625
0
LINE
8
0
10
35.575
20
-53.625
11
35.875
21
-53.625
0
LINE
8
0
10
35.875
20
-50.525
11
35.575
21
-50.525
0
LINE
8
0
10
21.575
20
-50.525
11
21.275
21
-50.525
0
LINE
8
0
10
36.375
20
-53.125
11
36.375
21
-51.025
0
LINE
8
0
10
20.775
20
-51.025
11
20.775
21
-53.125
0
ARC
8
0
10
41.125
20
-54.125
40
0.5
50
180
51
270
0
ARC
8
0
10
54.125
20
-54.125
40
0.5
50
270
51
0
0
ARC
8
0
10
54.125
20
-41.125
40
0.5
50
0
51
90
0
ARC
8
0
10
41.125
20
-41.125
40
0.5
50
90
51
180
0
LINE
8
0
10
41.125
20
-54.625
11
54.125
21
-54.625
0
LINE
8
0
10
54.125
20
-40.625
11
41.125
21
-40.625
0
LINE
8
0
10
54.625
20
-54.125
11
54.625
21
-53.625
0
LINE
8
0
10
54.625
20
-50.525
11
54.625
21
-44.725
0
LINE
8
0
10
54.625
20
-41.625
11
54.625
21
-41.125
0
LINE
8
0
10
40.625
20
-41.125
11
40.625
21
-41.625
0
LINE
8
0
10
40.625
20
-44.725
11
40.625
21
-50.525
0
LINE
8
0
10
40.625
20
-53.625
11
40.625
21
-54.125
0
ARC
8
0
10
40.325
20
-44.225
40
0.5
50
180
51
270
0
ARC
8
0
10
54.925
20
-44.225
40
0.5
50
270
51
0
0
ARC
8
0
10
54.925
20
-42.125
40
0.5
50
0
51
90
0
ARC
8
0
10
40.325
20
-42.125
40
0.5
50
90
51
180
0
LINE
8
0
10
40.325
20
-44.725
11
40.625
21
-44.725
0
LINE
8
0
10
54.625
20
-44.725
11
54.925
21
-44.725
0
LINE
8
0
10
54.925
20
-41.625
11
54.625
21
-41.625
0
LINE
8
0
10
40.625
20
-41.625
11
40.325
21
-41.625
0
LINE
8
0
10
55.425
20
-44.225
11
55.425
21
-42.125
0
LINE
8
0
10
39.825
20
-42.125
11
39.825
21
-44.225
0
ARC
8
0
10
40.325
20
-53.125
40
0.5
50
180
51
270
0
ARC
8
0
10
54.925
20
-53.125
40
0.5
50
270
51
0
0
ARC
8
0
10
54.925
20
-51.025
40
0.5
50
0
51
90
0
ARC
8
0
10
40.325
20
-51.025
40
0.5
50
90
51
180
0
LINE
8
0
10
40.325
20
-53.625
11
40.625
21
-53.625
0
LINE
8
0
10
54.625
20
-53.625
11
54.925
21
-53.625
0
LINE
8
0
10
54.925
20
-50.525
11
54.625
21
-50.525
0
LINE
8
0
10
40.625
20
-50.525
11
40.325
21
-50.525
0
LINE
8
0
10
55.425
20
-53.125
11
55.425
21
-51.025
0
LINE
8
0
10
39.825
20
-51.025
11
39.825
21
-53.125
0
ARC
8
0
10
3.025
20
-73.175
40
0.5
50
180
51
270
0
ARC
8
0
10
16.025
20
-73.175
40
0.5
50
270
51
0
0
ARC
8
0
10
16.025
20
-60.175
40
0.5
50
0
51
90
0
ARC
8
0
10
3.025
20
-60.175
40
0.5
50
90
51
180
0
LINE
8
0
10
3.025
20
-73.675
11
16.025
21
-73.675
0
LINE
8
0
10
16.025
20
-59.675
11
3.025
21
-59.675
0
LINE
8
0
10
16.525
20
-73.175
11
16.525
21
-72.675
0
LINE
8
0
10
16.525
20
-69.575
11
16.525
21
-63.775
0
LINE
8
0
10
16.525
20
-60.675
11
16.525
21
-60.175
0
LINE
8
0
10
2.525
20
-60.175
11
2.525
21
-60.675
0
LINE
8
0
10
2.525
20
-63.775
11
2.525
21
-69.575
0
LINE
8
0
10
2.525
20
-72.675
11
2.525
21
-73.175
0
ARC
8
0
10
2.225
20
-63.275
40
0.5
50
180
51
270
0
ARC
8
0
10
16.825
20
-63.275
40
0.5
50
270
51
0
0
ARC
8
0
10
16.825
20
-61.175
40
0.5
50
0
51
90
0
ARC
8
0
10
2.225
20
-61.175
40
0.5
50
90
51
180
0
LINE
8
0
10
2.225
20
-63.775
11
2.525
21
-63.775
0
LINE
8
0
10
16.525
20
-63.775
11
16.825
21
-63.775
0
LINE
8
0
10
16.825
20
-60.675
11
16.525
21
-60.675
0
LINE
8
0
10
2.525
20
-60.675
11
2.225
21
-60.675
0
LINE
8
0
10
17.325
20
-63.275
11
17.325
21
-61.175
0
LINE
8
0
10
1.725
20
-61.175
11
1.725
21
-63.275
0
ARC
8
0
10
2.225
20
-72.175
40
0.5
50
180
51
270
0
ARC
8
0
10
16.825
20
-72.175
40
0.5
50
270
51
0
0
ARC
8
0
10
16.825
20
-70.075
40
0.5
50
0
51
90
0
ARC
8
0
10
2.225
20
-70.075
40
0.5
50
90
51
180
0
LINE
8
0
10
2.225
20
-72.675
11
2.525
21
-72.675
0
LINE
8
0
10
16.525
20
-72.675
11
16.825
21
-72.675
0
LINE
8
0
10
16.825
20
-69.575
11
16.525
21
-69.575
0
LINE
8
0
10
2.525
20
-69.575
11
2.225
21
-69.575
0
LINE
8
0
10
17.325
20
-72.175
11
17.325
21
-70.075
0
LINE
8
0
10
1.725
20
-70.075
11
1.725
21
-72.175
0
ARC
8
0
10
22.075
20
-73.175
40
0.5
50
180
51
270
0
ARC
8
0
10
35.075
20
-73.175
40
0.5
50
270
51
0
0
ARC
8
0
10
35.075
20
-60.175
40
0.5
50
0
51
90
0
ARC
8
0
10
22.075
20
-60.175
40
0.5
50
90
51
180
0
LINE
8
0
10
22.075
20
-73.675
11
35.075
21
-73.675
0
LINE
8
0
10
35.075
20
-59.675
11
22.075
21
-59.675
0
LINE
8
0
10
35.575
20
-73.175
11
35.575
21
-72.675
0
LINE
8
0
10
35.575
20
-69.575
11
35.575
21
-63.775
0
LINE
8
0
10
35.575
20
-60.675
11
35.575
21
-60.175
0
LINE
8
0
10
21.575
20
-60.175
11
21.575
21
-60.675
0
LINE
8
0
10
21.575
20
-63.775
11
21.575
21
-69.575
0
LINE
8
0
10
21.575
20
-72.675
11
21.575
21
-73.175
0
ARC
8
0
10
21.275
20
-63.275
40
0.5
50
180
51
270
0
ARC
8
0
10
35.875
20
-63.275
40
0.5
50
270
51
0
0
ARC
8
0
10
35.875
20
-61.175
40
0.5
50
0
51
90
0
ARC
8
0
10
21.275
20
-61.175
40
0.5
50
90
51
180
0
LINE
8
0
10
21.275
20
-63.775
11
21.575
21
-63.775
0
LINE
8
0
10
35.575
20
-63.775
11
35.875
21
-63.775
0
LINE
8
0
10
35.875
20
-60.675
11
35.575
21
-60.675
0
LINE
8
0
10
21.575
20
-60.675
11
21.275
21
-60.675
0
LINE
8
0
10
36.375
20
-63.275
11
36.375
21
-61.175
0
LINE
8
0
10
20.775
20
-61.175
11
20.775
21
-63.275
0
ARC
8
0
10
21.275
20
-72.175
40
0.5
50
180
51
270
0
ARC
8
0
10
35.875
20
-72.175
40
0.5
50
270
51
0
0
ARC
8
0
10
35.875
20
-70.075
40
0.5
50
0
51
90
0
ARC
8
0
10
21.275
20
-70.075
40
0.5
50
90
51
180
0
LINE
8
0
10
21.275
20
-72.675
11
21.575
21
-72.675
0
LINE
8
0
10
35.575
20
-72.675
11
35.875
21
-72.675
0
LINE
8
0
10
35.875
20
-69.575
11
35.575
21
-69.575
0
LINE
8
0
10
21.575
20
-69.575
11
21.275
21
-69.575
0
LINE
8
0
10
36.375
20
-72.175
11
36.375
21
-70.075
0
LINE
8
0
10
20.775
20
-70.075
11
20.775
21
-72.175
0
ARC
8
0
10
41.125
20
-73.175
40
0.5
50
180
51
270
0
ARC
8
0
10
54.125
20
-73.175
40
0.5
50
270
51
0
0
ARC
8
0
10
54.125
20
-60.175
40
0.5
50
0
51
90
0
ARC
8
0
10
41.125
20
-60.175
40
0.5
50
90
51
180
0
LINE
8
0
10
41.125
20
-73.675
11
54.125
21
-73.675
0
LINE
8
0
10
54.125
20
-59.675
11
41.125
21
-59.675
0
LINE
8
0
10
54.625
20
-73.175
11
54.625
21
-72.675
0
LINE
8
0
10
54.625
20
-69.575
11
54.625
21
-63.775
0
LINE
8
0
10
54.625
20
-60.675
11
54.625
21
-60.175
0
LINE
8
0
10
40.625
20
-60.175
11
40.625
21
-60.675
0
LINE
8
0
10
40.625
20
-63.775
11
40.625
21
-69.575
0
LINE
8
0
10
40.625
20
-72.675
11
40.625
21
-73.175
0
ARC
8
0
10
40.325
20
-63.275
40
0.5
50
180
51
270
0
ARC
8
0
10
54.925
20
-63.275
40
0.5
50
270
51
0
0
ARC
8
0
10
54.925
20
-61.175
40
0.5
50
0
51
90
0
ARC
8
0
10
40.325
20
-61.175
40
0.5
50
90
51
180
0
LINE
8
0
10
40.325
20
-63.775
11
40.625
21
-63.775
0
LINE
8
0
10
54.625
20
-63.775
11
54.925
21
-63.775
0
LINE
8
0
10
54.925
20
-60.675
11
54.625
21
-60.675
0
LINE
8
0
10
40.625
20
-60.675
11
40.325
21
-60.675
0
LINE
8
0
10
55.425
20
-63.275
11
55.425
21
-61.175
0
LINE
8
0
10
39.825
20
-61.175
11
39.825
21
-63.275
0
ARC
8
0
10
40.325
20
-72.175
40
0.5
50
180
51
270
0
ARC
8
0
10
54.925
20
-72.175
40
0.5
50
270
51
0
0
ARC
8
0
10
54.925
20
-70.075
40
0.5
50
0
51
90
0
ARC
8
0
10
40.325
20
-70.075
40
0.5
50
90
51
180
0
LINE
8
0
10
40.325
20
-72.675
11
40.625
21
-72.675
0
LINE
8
0
10
54.625
20
-72.675
11
54.925
21
-72.675
0
LINE
8
0
10
54.925
20
-69.575
11
54.625
21
-69.575
0
LINE
8
0
10
40.625
20
-69.575
11
40.325
21
-69.575
0
LINE
8
0
10
55.425
20
-72.175
11
55.425
21
-70.075
0
LINE
8
0
10
39.825
20
-70.075
11
39.825
21
-72.175
0
ARC
8
0
10
60.175
20
-82.7
40
0.5
50
180
51
270
0
ARC
8
0
10
73.175
20
-82.7
40
0.5
50
270
51
0
0
ARC
8
0
10
73.175
20
-69.7
40
0.5
50
0
51
90
0
ARC
8
0
10
60.175
20
-69.7
40
0.5
50
90
51
180
0
LINE
8
0
10
60.175
20
-83.2
11
73.175
21
-83.2
0
LINE
8
0
10
73.175
20
-69.2
11
60.175
21
-69.2
0
LINE
8
0
10
73.675
20
-82.7
11
73.675
21
-82.2
0
LINE
8
0
10
73.675
20
-79.1
11
73.675
21
-73.3
0
LINE
8
0
10
73.675
20
-70.2
11
73.675
21
-69.7
0
LINE
8
0
10
59.675
20
-69.7
11
59.675
21
-70.2
0
LINE
8
0
10
59.675
20
-73.3
11
59.675
21
-79.1
0
LINE
8
0
10
59.675
20
-82.2
11
59.675
21
-82.7
0
ARC
8
0
10
59.375
20
-72.8
40
0.5
50
180
51
270
0
ARC
8
0
10
73.975
20
-72.8
40
0.5
50
270
51
0
0
ARC
8
0
10
73.975
20
-70.7
40
0.5
50
0
51
90
0
ARC
8
0
10
59.375
20
-70.7
40
0.5
50
90
51
180
0
LINE
8
0
10
59.375
20
-73.3
11
59.675
21
-73.3
0
LINE
8
0
10
73.675
20
-73.3
11
73.975
21
-73.3
0
LINE
8
0
10
73.975
20
-70.2
11
73.675
21
-70.2
0
LINE
8
0
10
59.675
20
-70.2
11
59.375
21
-70.2
0
LINE
8
0
10
74.475
20
-72.8
11
74.475
21
-70.7
0
LINE
8
0
10
58.875
20
-70.7
11
58.875
21
-72.8
0
ARC
8
0
10
59.375
20
-81.7
40
0.5
50
180
51
270
0
ARC
8
0
10
73.975
20
-81.7
40
0.5
50
270
51
0
0
ARC
8
0
10
73.975
20
-79.6
40
0.5
50
0
51
90
0
ARC
8
0
10
59.375
20
-79.6
40
0.5
50
90
51
180
0
LINE
8
0
10
59.375
20
-82.2
11
59.675
21
-82.2
0
LINE
8
0
10
73.675
20
-82.2
11
73.975
21
-82.2
0
LINE
8
0
10
73.975
20
-79.1
11
73.675
21
-79.1
0
LINE
8
0
10
59.675
20
-79.1
11
59.375
21
-79.1
0
LINE
8
0
10
74.475
20
-81.7
11
74.475
21
-79.6
0
LINE
8
0
10
58.875
20
-79.6
11
58.875
21
-81.7
0
ARC
8
0
10
58.175
20
-61.262
40
0.5
50
90
51
180
0
ARC
8
0
10
58.175
20
-67.262
40
0.5
50
180
51
270
0
ARC
8
0
10
73.175
20
-67.262
40
0.5
50
270
51
0
0
ARC
8
0
10
73.175
20
-61.262
40
0.5
50
0
51
90
0
LINE
8
0
10
57.675
20
-61.262
11
57.675
21
-67.262
0
LINE
8
0
10
73.675
20
-67.262
11
73.675
21
-61.262
0
LINE
8
0
10
58.175
20
-67.762
11
73.175
21
-67.762
0
LINE
8
0
10
73.175
20
-60.762
11
58.175
21
-60.762
0
ARC
8
0
10
58.175
20
-85.138
40
0.5
50
90
51
180
0
ARC
8
0
10
58.175
20
-91.138
40
0.5
50
180
51
270
0
ARC
8
0
10
73.175
20
-91.138
40
0.5
50
270
51
0
0
ARC
8
0
10
73.175
20
-85.138
40
0.5
50
0
51
90
0
LINE
8
0
10
57.675
20
-85.138
11
57.675
21
-91.138
0
LINE
8
0
10
73.675
20
-91.138
11
73.675
21
-85.138
0
LINE
8
0
10
58.175
20
-91.638
11
73.175
21
-91.638
0
LINE
8
0
10
73.175
20
-84.638
11
58.175
21
-84.638
0
ARC
8
0
10
12.55
20
-92.225
40
0.5
50
180
51
270
0
ARC
8
0
10
25.55
20
-92.225
40
0.5
50
270
51
0
0
ARC
8
0
10
25.55
20
-79.225
40
0.5
50
0
51
90
0
ARC
8
0
10
12.55
20
-79.225
40
0.5
50
90
51
180
0
LINE
8
0
10
12.55
20
-92.725
11
25.55
21
-92.725
0
LINE
8
0
10
25.55
20
-78.725
11
12.55
21
-78.725
0
LINE
8
0
10
26.05
20
-92.225
11
26.05
21
-91.725
0
LINE
8
0
10
26.05
20
-88.625
11
26.05
21
-82.825
0
LINE
8
0
10
26.05
20
-79.725
11
26.05
21
-79.225
0
LINE
8
0
10
12.05
20
-79.225
11
12.05
21
-79.725
0
LINE
8
0
10
12.05
20
-82.825
11
12.05
21
-88.625
0
LINE
8
0
10
12.05
20
-91.725
11
12.05
21
-92.225
0
ARC
8
0
10
11.75
20
-82.325
40
0.5
50
180
51
270
0
ARC
8
0
10
26.35
20
-82.325
40
0.5
50
270
51
0
0
ARC
8
0
10
26.35
20
-80.225
40
0.5
50
0
51
90
0
ARC
8
0
10
11.75
20
-80.225
40
0.5
50
90
51
180
0
LINE
8
0
10
11.75
20
-82.825
11
12.05
21
-82.825
0
LINE
8
0
10
26.05
20
-82.825
11
26.35
21
-82.825
0
LINE
8
0
10
26.35
20
-79.725
11
26.05
21
-79.725
0
LINE
8
0
10
12.05
20
-79.725
11
11.75
21
-79.725
0
LINE
8
0
10
26.85
20
-82.325
11
26.85
21
-80.225
0
LINE
8
0
10
11.25
20
-80.225
11
11.25
21
-82.325
0
ARC
8
0
10
11.75
20
-91.225
40
0.5
50
180
51
270
0
ARC
8
0
10
26.35
20
-91.225
40
0.5
50
270
51
0
0
ARC
8
0
10
26.35
20
-89.125
40
0.5
50
0
51
90
0
ARC
8
0
10
11.75
20
-89.125
40
0.5
50
90
51
180
0
LINE
8
0
10
11.75
20
-91.725
11
12.05
21
-91.725
0
LINE
8
0
10
26.05
20
-91.725
11
26.35
21
-91.725
0
LINE
8
0
10
26.35
20
-88.625
11
26.05
21
-88.625
0
LINE
8
0
10
12.05
20
-88.625
11
11.75
21
-88.625
0
LINE
8
0
10
26.85
20
-91.225
11
26.85
21
-89.125
0
LINE
8
0
10
11.25
20
-89.125
11
11.25
21
-91.225
0
ARC
8
0
10
4.112
20
-94.225
40
0.5
50
180
51
270
0
ARC
8
0
10
10.112
20
-94.225
40
0.5
50
270
51
0
0
ARC
8
0
10
10.112
20
-79.225
40
0.5
50
0
51
90
0
ARC
8
0
10
4.112
20
-79.225
40
0.5
50
90
51
180
0
LINE
8
0
10
4.112
20
-94.725
11
10.112
21
-94.725
0
LINE
8
0
10
10.112
20
-78.725
11
4.112
21
-78.725
0
LINE
8
0
10
10.612
20
-94.225
11
10.612
21
-79.225
0
LINE
8
0
10
3.612
20
-79.225
11
3.612
21
-94.225
0
ARC
8
0
10
27.988
20
-94.225
40
0.5
50
180
51
270
0
ARC
8
0
10
33.988
20
-94.225
40
0.5
50
270
51
0
0
ARC
8
0
10
33.988
20
-79.225
40
0.5
50
0
51
90
0
ARC
8
0
10
27.988
20
-79.225
40
0.5
50
90
51
180
0
LINE
8
0
10
27.988
20
-94.725
11
33.988
21
-94.725
0
LINE
8
0
10
33.988
20
-78.725
11
27.988
21
-78.725
0
LINE
8
0
10
34.488
20
-94.225
11
34.488
21
-79.225
0
LINE
8
0
10
27.488
20
-79.225
11
27.488
21
-94.225
0
ARC
8
0
10
41.125
20
-92.225
40
0.5
50
180
51
270
0
ARC
8
0
10
54.125
20
-92.225
40
0.5
50
270
51
0
0
ARC
8
0
10
54.125
20
-79.225
40
0.5
50
0
51
90
0
ARC
8
0
10
41.125
20
-79.225
40
0.5
50
90
51
180
0
LINE
8
0
10
41.125
20
-92.725
11
54.125
21
-92.725
0
LINE
8
0
10
54.125
20
-78.725
11
41.125
21
-78.725
0
LINE
8
0
10
54.625
20
-92.225
11
54.625
21
-91.725
0
LINE
8
0
10
54.625
20
-88.625
11
54.625
21
-82.825
0
LINE
8
0
10
54.625
20
-79.725
11
54.625
21
-79.225
0
LINE
8
0
10
40.625
20
-79.225
11
40.625
21
-79.725
0
LINE
8
0
10
40.625
20
-82.825
11
40.625
21
-88.625
0
LINE
8
0
10
40.625
20
-91.725
11
40.625
21
-92.225
0
ARC
8
0
10
40.325
20
-82.325
40
0.5
50
180
51
270
0
ARC
8
0
10
54.925
20
-82.325
40
0.5
50
270
51
0
0
ARC
8
0
10
54.925
20
-80.225
40
0.5
50
0
51
90
0
ARC
8
0
10
40.325
20
-80.225
40
0.5
50
90
51
180
0
LINE
8
0
10
40.325
20
-82.825
11
40.625
21
-82.825
0
LINE
8
0
10
54.625
20
-82.825
11
54.925
21
-82.825
0
LINE
8
0
10
54.925
20
-79.725
11
54.625
21
-79.725
0
LINE
8
0
10
40.625
20
-79.725
11
40.325
21
-79.725
0
LINE
8
0
10
55.425
20
-82.325
11
55.425
21
-80.225
0
LINE
8
0
10
39.825
20
-80.225
11
39.825
21
-82.325
0
ARC
8
0
10
40.325
20
-91.225
40
0.5
50
180
51
270
0
ARC
8
0
10
54.925
20
-91.225
40
0.5
50
270
51
0
0
ARC
8
0
10
54.925
20
-89.125
40
0.5
50
0
51
90
0
ARC
8
0
10
40.325
20
-89.125
40
0.5
50
90
51
180
0
LINE
8
0
10
40.325
20
-91.725
11
40.625
21
-91.725
0
LINE
8
0
10
54.625
20
-91.725
11
54.925
21
-91.725
0
LINE
8
0
10
54.925
20
-88.625
11
54.625
21
-88.625
0
LINE
8
0
10
40.625
20
-88.625
11
40.325
21
-88.625
0
LINE
8
0
10
55.425
20
-91.225
11
55.425
21
-89.125
0
LINE
8
0
10
39.825
20
-89.125
11
39.825
21
-91.225
0
ENDSEC
0
EOF